<svg xmlns="http://www.w3.org/2000/svg" viewBox="0 0 108.64 18.92"><defs><style>.cls-1{fill:#af9875;}</style></defs><title>Asset 1</title><g id="Layer_2" data-name="Layer 2"><g id="OBJECTS"><path class="cls-1" d="M51.64,17.36H50.3c-3.08-.09-10.63-.83-13.53-5.85a7.4,7.4,0,0,1,.74-8.83,6.13,6.13,0,0,1,7.28-1.52,5.53,5.53,0,0,1,2.8,2.69c-.08,2.06-.2,3.6-.85,4.62a3.81,3.81,0,0,1-2.4,1.73,2.91,2.91,0,0,1-2.17-.36,2.38,2.38,0,0,1-.81-3c.25-.6.77-1.15,1.35-1a2,2,0,0,1,1.37,1.94.29.29,0,0,0,.18.27A.28.28,0,0,0,44.57,8a2.38,2.38,0,0,0-.11-3.31,2.69,2.69,0,0,0-3.88,0A3.83,3.83,0,0,0,39.4,8.92,4.73,4.73,0,0,0,43.94,12c2.06.06,3.93-1.68,4.54-4.24a6.47,6.47,0,0,0-.31-4,.27.27,0,0,0-.07-.14A6,6,0,0,0,45,.64,6.76,6.76,0,0,0,37.09,2.3a7.94,7.94,0,0,0-.82,9.5c1.92,3.31,5.63,4.85,8.93,5.56H42.1A11.84,11.84,0,0,1,37.2,15a.27.27,0,0,0-.25-.08,4.77,4.77,0,0,0-3.11,2.48h-.67a5.94,5.94,0,0,1,3.19-2.81.29.29,0,0,0,.17-.37.28.28,0,0,0-.37-.17c-.12,0-2.83,1-3.61,3.35h-1c.8-2.15,3.94-3.74,4-3.76a.29.29,0,1,0-.26-.51c-.15.07-3.56,1.8-4.32,4.27H16.23a1.3,1.3,0,0,1-.44-1.55,1.58,1.58,0,0,1,1.59-1h0a118,118,0,0,0,12.4,1.94h0a.28.28,0,0,0,.28-.26.28.28,0,0,0-.25-.31A40.26,40.26,0,0,1,19.5,13.69,2.56,2.56,0,0,1,19.91,12a1.88,1.88,0,0,1,1.24-.66,41.26,41.26,0,0,0,9.73,3.94H31a.29.29,0,0,0,.27-.21.28.28,0,0,0-.19-.36,20.4,20.4,0,0,1-6.88-3.56c0-.32-.13-1.32.58-1.72a2.45,2.45,0,0,1,2,.14A23.14,23.14,0,0,0,32.14,14a.42.42,0,0,0,.15,0,.29.29,0,0,0,.23-.12.3.3,0,0,0,0-.38A25,25,0,0,1,28.84,9.2a2,2,0,0,1,.93-1.3,1.82,1.82,0,0,1,1.6.33,10.79,10.79,0,0,0,3.23,4.64.24.24,0,0,0,.18.07.28.28,0,0,0,.2-.09.29.29,0,0,0,0-.38,8.43,8.43,0,0,1-1.34-7.06.28.28,0,0,0,0-.2l-.86-1.93a.27.27,0,0,0-.24-.17.29.29,0,0,0-.27.13L31.14,5.06a.22.22,0,0,0-.05.11,6.58,6.58,0,0,0,.08,2.31,2,2,0,0,0-1.62-.1,2.13,2.13,0,0,0-1.09,1.19,6.47,6.47,0,0,1-1.08-3,.27.27,0,0,0-.08-.22l-1.65-1.6a.29.29,0,0,0-.28-.07.26.26,0,0,0-.2.2l-.53,2a.32.32,0,0,0,0,.17,10.15,10.15,0,0,0,1.48,2.72,2.33,2.33,0,0,0-1.69.17,1.94,1.94,0,0,0-.9,1.74A22.75,22.75,0,0,1,19.37,6.2a.26.26,0,0,0-.14-.11l-2.15-.81a.28.28,0,0,0-.28,0,.32.32,0,0,0-.11.27L17,7.79a.29.29,0,0,0,0,.13,13.48,13.48,0,0,0,3.39,3,2.31,2.31,0,0,0-1,.73,2.91,2.91,0,0,0-.54,1.84,37.24,37.24,0,0,1-7-3.62.28.28,0,0,0-.2-.05l-2.25.27a.31.31,0,0,0-.23.17.28.28,0,0,0,0,.28l1.53,2.14a.43.43,0,0,0,.1.09,24.67,24.67,0,0,0,5.23,1.81,1.93,1.93,0,0,0-.91,1.07,1.84,1.84,0,0,0,.2,1.74H13.87A23.17,23.17,0,0,1,7.4,16.18c-2.12-.62-3.66-1.06-4.49-.3A5.63,5.63,0,0,1,.24,17.29a.3.3,0,0,0-.24.29v.07a.29.29,0,0,0,.29.29H51.65a.29.29,0,0,0,0-.58Zm-17.13,0a4.31,4.31,0,0,1,2.4-1.88,10.35,10.35,0,0,0,3.26,1.88Z"/><path class="cls-1" d="M108.39,17.29a5.67,5.67,0,0,1-2.66-1.41c-.84-.76-2.37-.32-4.49.3a23.17,23.17,0,0,1-6.47,1.18H93.19a1.84,1.84,0,0,0,.2-1.74,1.93,1.93,0,0,0-.91-1.07,24.67,24.67,0,0,0,5.23-1.81.26.26,0,0,0,.09-.09l1.54-2.14a.29.29,0,0,0-.2-.45l-2.25-.27a.28.28,0,0,0-.2.05,37.24,37.24,0,0,1-7,3.62,3,3,0,0,0-.54-1.84,2.28,2.28,0,0,0-1-.73,13.36,13.36,0,0,0,3.4-3,.5.5,0,0,0,0-.13L92,5.59a.32.32,0,0,0-.11-.27.28.28,0,0,0-.28,0l-2.15.81a.26.26,0,0,0-.14.11,23.14,23.14,0,0,1-4.17,4.45,1.94,1.94,0,0,0-.9-1.74,2.33,2.33,0,0,0-1.69-.17A10.15,10.15,0,0,0,84,6a.32.32,0,0,0,0-.17l-.53-2a.26.26,0,0,0-.2-.2.29.29,0,0,0-.28.07l-1.65,1.6a.27.27,0,0,0-.08.22,6.47,6.47,0,0,1-1.08,3,2.16,2.16,0,0,0-1.09-1.19,2,2,0,0,0-1.62.1,6.58,6.58,0,0,0,.08-2.31.22.22,0,0,0,0-.11L76.36,3.24a.29.29,0,0,0-.27-.13.27.27,0,0,0-.24.17L75,5.21a.28.28,0,0,0,0,.2,8.43,8.43,0,0,1-1.34,7.06.29.29,0,0,0,0,.38.28.28,0,0,0,.2.09.24.24,0,0,0,.18-.07,10.79,10.79,0,0,0,3.23-4.64,1.82,1.82,0,0,1,1.6-.33,2,2,0,0,1,.93,1.3,25,25,0,0,1-3.65,4.34.3.3,0,0,0,0,.38.29.29,0,0,0,.23.12.42.42,0,0,0,.15,0,23.14,23.14,0,0,0,5.37-4.45,2.45,2.45,0,0,1,2-.14c.71.4.63,1.4.58,1.72a20.4,20.4,0,0,1-6.88,3.56.29.29,0,0,0,.08.57h.07a41.26,41.26,0,0,0,9.73-3.94,1.91,1.91,0,0,1,1.24.66,2.56,2.56,0,0,1,.41,1.72,40.26,40.26,0,0,1-10.38,2.53.28.28,0,0,0-.25.31.28.28,0,0,0,.28.26h0a118,118,0,0,0,12.4-1.94h0a1.59,1.59,0,0,1,1.59,1,1.3,1.3,0,0,1-.44,1.55H77.67c-.76-2.47-4.17-4.2-4.32-4.27a.29.29,0,0,0-.39.12.29.29,0,0,0,.13.39s3.17,1.61,4,3.76h-1c-.78-2.31-3.49-3.31-3.61-3.35a.28.28,0,0,0-.37.17.29.29,0,0,0,.17.37,5.94,5.94,0,0,1,3.19,2.81H74.8a4.77,4.77,0,0,0-3.11-2.48.27.27,0,0,0-.25.08,11.8,11.8,0,0,1-4.91,2.4H63.44c3.3-.71,7-2.25,8.93-5.56a7.94,7.94,0,0,0-.82-9.5A6.76,6.76,0,0,0,63.61.64a6.09,6.09,0,0,0-3.08,3,.35.35,0,0,0-.06.14,6.47,6.47,0,0,0-.31,4c.61,2.56,2.48,4.3,4.53,4.24a4.73,4.73,0,0,0,4.55-3.05,3.83,3.83,0,0,0-1.18-4.28,2.69,2.69,0,0,0-3.88,0A2.39,2.39,0,0,0,64.06,8a.3.3,0,0,0,.32.07.29.29,0,0,0,.18-.27,2,2,0,0,1,1.37-1.94c.58-.13,1.1.42,1.35,1a2.38,2.38,0,0,1-.81,3,2.91,2.91,0,0,1-2.17.36,3.81,3.81,0,0,1-2.4-1.73c-.65-1-.77-2.56-.86-4.62a5.56,5.56,0,0,1,2.81-2.69,6.13,6.13,0,0,1,7.28,1.52,7.4,7.4,0,0,1,.74,8.83c-2.9,5-10.45,5.76-13.53,5.85H57a.29.29,0,0,0,0,.58h51.37a.29.29,0,0,0,.29-.29v-.07A.3.3,0,0,0,108.39,17.29Zm-39.92.07a10.2,10.2,0,0,0,3.25-1.88,4.29,4.29,0,0,1,2.41,1.88Z"/><path class="cls-1" d="M54.32,16.38h0a1.26,1.26,0,0,0-1,.56,1.26,1.26,0,0,0,0,1.42,1.26,1.26,0,0,0,1,.56h0a1.28,1.28,0,0,0,1.24-1,1.14,1.14,0,0,0,0-.52A1.28,1.28,0,0,0,54.32,16.38Z"/></g></g></svg>