<svg width="181" height="271" viewBox="0 0 181 271" fill="none" xmlns="http://www.w3.org/2000/svg">
<mask id="mask0" mask-type="alpha" maskUnits="userSpaceOnUse" x="0" y="0" width="181" height="271">
<path d="M49.5391 265.234C44.9818 268.49 37.8854 270.117 28.25 270.117C18.6146 270.117 11.6484 268.294 7.35156 264.648C3.05469 260.872 0.90625 255.99 0.90625 250V245.508C0.90625 243.164 2.46875 238.151 5.59375 230.469C8.84896 222.656 10.8021 214.909 11.4531 207.227C16.0104 154.362 18.2891 115.104 18.2891 89.4531C18.2891 63.8021 18.0286 48.8281 17.5078 44.5312C16.987 40.2344 15.75 35.0911 13.7969 29.1016C11.974 23.112 11.0625 19.987 11.0625 19.7266C11.0625 12.8255 15.4896 8.59375 24.3438 7.03125C50.9062 2.34375 89.7083 0 140.75 0H152.859C162.495 0 169.396 1.30208 173.562 3.90625C177.859 6.51042 180.008 11.3932 180.008 18.5547V23.2422C180.008 32.7474 175.581 37.5 166.727 37.5C164.773 37.5 160.737 36.7188 154.617 35.1562C148.497 33.5938 142.768 32.3568 137.43 31.4453C132.221 30.4036 121.089 29.8828 104.031 29.8828C87.1042 29.8828 76.0365 33.8542 70.8281 41.7969C65.75 49.7396 63.2109 65.3646 63.2109 88.6719C63.2109 100.651 65.099 108.659 68.875 112.695C72.7812 116.602 81.7656 118.555 95.8281 118.555C99.3438 118.555 104.617 117.839 111.648 116.406C118.68 114.974 124.734 114.258 129.812 114.258C134.891 114.258 139.383 116.471 143.289 120.898C147.326 125.326 149.344 131.576 149.344 139.648C149.344 151.237 143.354 157.031 131.375 157.031L108.719 155.078C98.8229 155.078 89.9688 156.771 82.1562 160.156C74.3438 163.411 69.0052 167.383 66.1406 172.07C59.1094 183.529 55.5938 202.669 55.5938 229.492L56.5703 252.539C56.5703 257.617 54.2266 261.849 49.5391 265.234Z" fill="white"/>
</mask>
<g mask="url(#mask0)">
<path d="M36 195.5C29 219 1 210.5 -17.5 193C-13.5 184.833 -5.1 167.3 -3.5 162.5C-1.5 156.5 -9.5 54.5 -10.5 40.5C-11.5 26.5 5.5 -5 24.5 -9C43.5 -13 81.5 -16 126 -14.5C170.5 -13 165 -17.5 186 -9C207 -0.5 196.5 6.5 193 14.5C189.5 22.5 169 -24.3847 174 -3.5C179 17.3847 126 23.5 100 20C74 16.5 58 35.5 67 76.5C76 117.5 76.5 102.7 76.5 105.5C76.5 109 143 93 150 96.5C157 100 168 106.5 145.5 136C123 165.5 103 136.5 76.5 143C50 149.5 43 172 36 195.5Z" fill="#5855DC"/>
</g>
</svg>
